<?xml version="1.0" encoding="UTF-8"?>
<!DOCTYPE svg PUBLIC "-//W3C//DTD SVG 1.1//EN" "http://www.w3.org/Graphics/SVG/1.1/DTD/svg11.dtd">
<!-- Creator: CorelDRAW X8 -->
<svg xmlns="http://www.w3.org/2000/svg" xml:space="preserve" width="12.3526mm" height="12.0021mm" version="1.1" style="shape-rendering:geometricPrecision; text-rendering:geometricPrecision; image-rendering:optimizeQuality; fill-rule:evenodd; clip-rule:evenodd"
viewBox="0 0 13 12"
 xmlns:xlink="http://www.w3.org/1999/xlink">
 <defs>
  <style type="text/css">
   <![CDATA[
    .fil0 {fill:#EA5B24;fill-rule:nonzero}
   ]]>
  </style>
 </defs>
 <g id="图层_x0020_1">
  <metadata id="CorelCorpID_0Corel-Layer"/>
  <path class="fil0" d="M2 11l0 -4c0,-2 2,-4 4,-4 3,0 5,2 5,4l0 4 1 0c0,0 1,1 1,1 0,0 -1,0 -1,0l-11 0c-1,0 -1,0 -1,0 0,0 0,-1 1,-1l1 0zm5 -6l-2 3 1 0 0 3 2 -4 -2 0 1 -2zm3 -4c0,0 0,0 0,1l-1 1 0 -1 0 -1c1,0 1,0 1,0zm-4 -1c1,0 1,0 1,0l0 2 -1 0 0 -2c0,0 0,0 0,0zm-3 1c0,0 0,0 0,0l1 1 0 1 -1 -1c0,-1 0,-1 0,-1zm-3 3c0,-1 1,-1 1,-1l1 1 0 1 -2 -1c0,0 0,0 0,0zm13 0c0,0 0,0 -1,0l-1 1 0 -1 1 -1c0,0 0,0 1,1z"/>
 </g>
</svg>
