<?xml version="1.0" encoding="UTF-8"?>
<!DOCTYPE svg PUBLIC "-//W3C//DTD SVG 1.1//EN" "http://www.w3.org/Graphics/SVG/1.1/DTD/svg11.dtd">
<!-- Creator: CorelDRAW X8 -->
<svg xmlns="http://www.w3.org/2000/svg" xml:space="preserve" width="12.3526mm" height="12.2518mm" version="1.1" style="shape-rendering:geometricPrecision; text-rendering:geometricPrecision; image-rendering:optimizeQuality; fill-rule:evenodd; clip-rule:evenodd"
viewBox="0 0 25 25"
 xmlns:xlink="http://www.w3.org/1999/xlink">
 <defs>
  <style type="text/css">
   <![CDATA[
    .fil0 {fill:#EA5B24;fill-rule:nonzero}
   ]]>
  </style>
 </defs>
 <g id="图层_x0020_1">
  <metadata id="CorelCorpID_0Corel-Layer"/>
  <g id="_2309513253840">
   <path class="fil0" d="M20 0l-18 0c-1,0 -2,1 -2,2l0 21c0,1 1,2 2,2l12 0c-1,-1 -1,-1 -1,-2 -1,-1 -2,-3 -2,-4 0,-1 0,-1 0,-2 0,-1 1,-3 2,-4 1,-1 3,-2 4,-2 2,0 3,0 5,0l0 -9c0,-1 -1,-2 -2,-2zm-10 11l-6 0c-1,0 -1,0 -1,-1 0,0 0,0 1,0l6 0c1,0 1,0 1,0 0,1 0,1 -1,1zm3 -5l0 0c0,0 0,0 -1,0l-8 0c-1,0 -1,0 -1,-1 0,0 0,0 1,0l0 0c0,0 0,0 1,0l8 0c1,0 1,0 1,0 0,1 0,1 -1,1z"/>
   <path class="fil0" d="M19 12c-4,0 -7,3 -7,7 0,3 3,6 7,6 3,0 6,-3 6,-6 0,-4 -3,-7 -6,-7zm3 7l-3 0c0,0 0,0 0,0 0,0 -1,0 -1,0l0 -4c0,0 1,-1 1,-1 0,0 1,1 1,1l0 3 2 0c1,0 1,0 1,1 0,0 0,0 -1,0z"/>
  </g>
 </g>
</svg>
