<?xml version="1.0" encoding="UTF-8"?>
<!DOCTYPE svg PUBLIC "-//W3C//DTD SVG 1.1//EN" "http://www.w3.org/Graphics/SVG/1.1/DTD/svg11.dtd">
<!-- Creator: CorelDRAW X8 -->
<svg xmlns="http://www.w3.org/2000/svg" xml:space="preserve" width="33.5282mm" height="41.148mm" version="1.1" style="shape-rendering:geometricPrecision; text-rendering:geometricPrecision; image-rendering:optimizeQuality; fill-rule:evenodd; clip-rule:evenodd"
viewBox="0 0 297 364"
 xmlns:xlink="http://www.w3.org/1999/xlink">
 <defs>
  <style type="text/css">
   <![CDATA[
    .str0 {stroke:#6699FF;stroke-width:7.49677}
    .fil0 {fill:none}
    .fil1 {fill:#566892}
    .fil2 {fill:#ECEFF7}
   ]]>
  </style>
     <clipPath id="id0">
      <path d="M297 331l0 -331 -297 0 0 331c0,-17 66,-30 148,-30 82,0 149,13 149,30z"/>
     </clipPath>
     <clipPath id="id1">
      <path d="M276 317l0 -317 -255 0 0 317c24,-10 72,-16 127,-16 56,0 104,6 128,16z"/>
     </clipPath>
 </defs>
 <g id="图层_x0020_1">
  <metadata id="CorelCorpID_0Corel-Layer"/>
  <g id="_2309513239920">
   <g>
    <g style="clip-path:url(#id0)">
     <image x="0" y="0" width="297" height="331" xlink:href="鸡.svg_Images\鸡.svg_ImgID1.png"/>
    </g>
   </g>
   <ellipse class="fil0 str0" cx="148" cy="331" rx="144" ry="30"/>
   <ellipse class="fil1" cx="148" cy="331" rx="97" ry="13"/>
   <g>
    <g style="clip-path:url(#id1)">
     <image x="21" y="0" width="255" height="317" xlink:href="鸡.svg_Images\鸡.svg_ImgID2.png"/>
    </g>
   </g>
   <g>
    <path class="fil2" d="M44 115l0 0c-1,1 -1,2 -1,4 1,0 0,0 1,0l6 -1c1,0 1,0 2,1l4 1c-1,3 -1,3 0,6 0,1 2,3 2,4 1,2 2,2 4,3 2,1 3,0 5,-1 0,2 1,3 1,4 0,2 0,4 0,5 0,1 1,1 1,2 0,3 0,7 -1,9l1 0c0,1 0,2 0,3 1,2 1,5 1,7 0,3 0,5 0,7l0 21c0,3 -1,5 -1,8 1,1 0,2 0,3 0,2 0,6 0,8 0,2 1,2 0,4 0,2 0,2 0,4 1,1 0,2 1,3l1 5c1,3 1,6 2,8l2 5c0,1 1,1 1,1 0,1 0,1 0,1l1 0c1,1 1,3 1,4 1,2 2,2 4,7 1,1 2,2 2,4 0,1 -1,0 0,1l2 0c0,2 1,3 1,5 0,0 0,1 1,1 0,1 0,1 1,1 1,1 0,0 0,1 1,1 0,0 1,1 1,0 1,1 1,1 1,0 1,0 1,1 3,1 0,1 6,3 2,0 2,1 2,2 2,0 3,0 4,-1 2,3 2,2 4,4l1 1c0,0 1,1 1,2l2 2c1,1 1,1 2,1 0,1 0,1 2,1 0,3 0,3 1,5 1,0 1,1 1,1 1,2 1,1 2,3l0 -1c1,0 0,0 2,1l3 4c1,2 3,4 5,5l0 -1c1,0 1,1 2,1 2,1 2,1 5,3 2,1 1,1 4,1 1,-1 2,0 4,1 0,3 0,2 1,3l2 3c-1,0 -1,1 -2,2 0,0 -1,0 -1,1 0,0 0,1 -1,1 -1,0 -1,0 -2,0 -2,0 -6,-2 -8,-2 -1,0 -1,1 -2,1 -1,0 -1,-1 -2,0 0,0 -1,0 -1,0 0,1 0,0 0,1 0,0 0,0 2,0 0,2 2,3 5,3l0 0c-2,0 -3,1 -5,0 -2,0 -4,-1 -6,0 -1,1 0,1 -1,1l0 0c0,0 0,0 0,0l-2 1c-1,1 -2,2 -2,4 -1,0 -1,1 0,1 1,0 1,-1 2,-1 1,-1 2,0 4,-1 1,0 1,-1 3,0 2,1 1,0 3,0 5,0 7,-1 8,-1 1,1 -1,2 -2,3 -2,2 -2,1 -1,2l-1 0c-1,-1 -2,-2 -4,-1 0,0 0,0 0,0l-1 0c0,0 0,0 1,1l0 0c0,1 0,1 0,1 -1,1 0,0 -1,0 0,1 1,1 1,1l-3 1c-2,1 -2,1 -3,1 0,0 -1,0 -1,0 0,0 0,0 -1,0 -2,-1 -2,0 -3,-1 -3,0 -5,0 -8,-1 -2,-1 -4,-1 -4,2l-1 0c0,-2 0,-1 0,-2 -1,0 -1,0 -2,0 -1,1 0,1 -1,1l-1 1c-1,1 -1,1 -1,2 1,-1 1,0 3,0 2,0 1,0 2,1 1,0 1,-1 3,-1 1,0 1,1 2,1 3,1 9,2 12,2 -1,1 -3,1 -5,3 -2,2 -2,1 -3,4 0,0 0,1 -1,1l4 -1c1,0 1,0 2,0 2,-2 10,-2 14,-5 3,-2 3,0 7,0 3,-1 1,-2 3,-4 1,-2 4,-2 5,-1 2,3 1,2 2,2 1,0 1,-1 1,1 1,-1 1,-1 2,-1 0,-1 1,0 1,-2 1,1 1,1 3,1 -2,-3 -3,-2 -9,-5 0,-1 0,-1 -1,-1 1,-1 0,-1 1,-2 1,-1 3,-2 3,-3 1,-2 2,-5 4,-6 3,-1 4,2 6,4 1,1 1,1 3,1 2,1 2,0 3,0 0,-3 -2,-3 -4,-5 -1,0 -1,0 -2,-1l-3 -2c-2,-2 -1,-2 -1,-6 4,0 3,0 5,-1 1,0 1,0 2,-1 2,0 2,-1 3,-1 2,-1 2,-3 4,-2 1,1 2,0 3,0 1,0 0,0 0,0 0,0 0,0 1,0 0,0 0,0 0,0 0,0 0,0 0,0l1 -1c0,0 1,1 2,-1 0,0 0,0 0,0 0,-1 0,-2 1,-2l1 1c1,1 1,2 1,3 0,-1 0,0 0,-1l1 0 0 -1c2,0 1,1 2,-1 1,-1 1,0 1,-2 1,0 1,0 1,0l0 -1c1,0 0,0 1,0l0 1c0,0 0,0 0,0 0,-1 0,-1 1,-2 1,0 0,0 1,0 2,0 0,0 2,0 0,-1 0,-1 0,-2 0,0 0,0 1,0 0,1 -1,0 0,1 0,-1 0,-1 0,-2 2,0 1,0 2,0 0,0 0,0 0,0 1,0 1,0 2,1 1,-2 0,0 0,-2 1,0 1,0 2,0 1,0 1,0 2,1 0,-2 0,-1 0,-3 1,0 1,0 2,0 0,0 0,0 1,0 0,-2 0,-1 1,-1 0,0 0,-1 1,0 0,-1 0,-1 -1,-2 2,0 1,0 2,1 1,0 0,1 0,0 0,0 0,0 0,-1l1 0c-1,-1 -1,-1 -1,-2 1,0 1,0 2,-2l0 0c0,0 0,-1 0,-1 0,0 0,0 0,-1 1,0 1,0 1,0 1,0 1,0 2,0l-2 -1c1,0 1,0 1,-1 0,0 0,0 0,0 1,-1 1,0 2,0 -1,-1 0,-1 -1,-1l0 -1 1 0c0,-1 0,0 0,-1l2 -1c0,0 0,0 0,0 -1,0 -1,0 -1,-1 0,0 0,0 0,0l2 0c0,-1 -1,-1 -1,-2 1,-1 1,0 2,-1 1,0 1,1 1,-1 1,0 1,1 2,1 0,-1 0,0 0,-1 0,0 0,0 0,-1 1,0 2,0 3,-1l-2 -1c1,0 1,0 2,0 1,0 0,0 1,0l0 -1c2,0 2,0 3,1 -1,-2 -2,-2 -2,-3 0,0 0,0 0,0 -2,0 -2,-1 -4,-1 1,-1 0,0 1,0 0,-1 0,-2 0,-3 0,0 0,-1 0,-2 3,0 0,-3 6,-3 0,-2 0,-1 1,-2 -1,0 -1,0 -2,0l0 -1c1,0 1,0 1,0l2 -1 0 -1c-2,0 -3,0 -4,0 1,-2 4,-2 5,-3l1 0c2,-2 -1,0 2,-3 1,0 0,0 1,0 1,-2 1,-1 2,-2 0,-1 0,-1 0,-1 0,-1 -1,-1 -1,-2 1,0 2,0 2,-1l-3 -2c1,-1 1,-1 1,-2 -1,1 -1,0 -2,0 1,-1 4,0 5,-2 1,-1 -1,0 1,-2 1,0 1,0 1,-1 0,-1 0,0 -1,-1l0 -1c-1,-1 -1,-2 -1,-2 0,-1 -1,-1 -2,-1l0 -1c1,0 1,0 2,-2 0,0 0,0 0,0l0 0c1,0 1,0 2,-1 1,0 1,-3 2,-5 0,-1 0,-1 -1,-1 0,-2 0,-1 0,-2l0 -1c1,-1 0,1 1,0 0,-2 -1,0 -1,-2 0,0 1,-2 1,-3 0,-2 -1,-1 -3,-1 0,1 0,2 -1,2 0,-2 0,-2 1,-3 1,-1 2,-1 3,-3l1 -2c0,-1 1,-3 0,-4 0,-1 -1,-1 0,-3 0,-3 2,-4 1,-7 0,-1 0,-1 0,-2 0,0 -1,0 -1,0l0 0c0,-1 0,-1 -1,-1 1,-1 1,0 0,-2 0,0 -1,-1 -2,-1 0,-2 1,-3 0,-5l0 -1c0,0 0,0 0,0l0 -2c1,-2 0,-2 -1,-4l2 -1c1,0 0,0 1,0 0,-2 0,-3 0,-5l-3 0c1,-2 1,-1 2,-1l-2 -4c0,0 0,0 0,0l-1 -2c0,-1 1,-2 1,-4 -1,0 0,0 -1,0 0,-1 0,-2 0,-3 1,0 0,1 1,-1l-1 0c0,-1 1,0 0,-3 0,-3 0,-3 -3,-3l0 -1c-1,1 -1,1 -2,1 -2,0 -2,0 -4,2 -1,0 -1,0 -2,1 -10,6 -7,3 -14,11 -1,2 -2,2 -4,5l-4 5 -11 8c-2,2 -5,3 -8,5 -5,3 -1,1 -6,3l-4 2c-1,0 -2,0 -2,1 -1,0 -2,0 -3,0 -3,1 -4,2 -8,2 -3,0 -7,2 -10,1 -2,-1 -4,-1 -5,-1 -5,-1 -10,-3 -14,-5 0,-1 -1,-1 -1,-2 -5,-3 -6,-5 -9,-10l-2 -3c-1,-2 -3,-4 -5,-6 0,-1 -1,-1 -1,-1 0,-1 0,-2 -1,-3l0 0c-1,-2 -2,-4 -4,-8 -4,-9 -6,-10 -7,-13 -1,-2 1,-1 -3,-7l0 -1c-1,-2 -2,-3 -4,-6 -1,-1 -1,-1 -2,-2 0,-1 0,-1 -1,-2l-2 -2c0,0 0,0 0,0 -1,-2 -3,-4 -5,-4l-2 -2c0,0 0,0 0,0l-5 -1c-1,-1 -1,-1 -2,-1 -3,-1 -3,-2 -6,-3 -2,0 -1,0 -2,-1 -1,0 -2,0 -3,0 0,-1 4,-2 3,-7 0,-1 0,-1 0,-1 -1,-2 -4,-5 -5,-3 -1,2 -1,4 -1,5 -1,-1 0,-4 -2,-5 -1,1 0,0 0,2 -1,2 -1,3 -1,6 0,-1 0,0 0,-1 0,0 0,0 0,-1 -1,-2 -1,-3 -1,-4 -2,0 -2,2 -2,3 0,4 0,3 0,5 -2,-1 -2,-3 -3,-4 0,-1 0,-1 -1,-1 0,1 0,5 0,6 0,0 -1,-1 -1,-2 -1,0 -1,0 -2,3 -1,0 -1,0 -3,3 0,1 0,1 0,2 0,0 0,0 0,1 -2,3 -1,3 -4,4 -1,0 -2,1 -3,2z"/>
    <polygon class="fil2" points="240,238 241,238 241,237 "/>
    <polygon class="fil2" points="222,271 222,271 222,271 "/>
    <polygon class="fil2" points="215,277 215,278 215,277 "/>
    <polygon class="fil2" points="208,289 208,289 208,289 "/>
    <polygon class="fil2" points="199,294 199,294 199,294 "/>
    <polygon class="fil2" points="130,300 130,301 131,300 "/>
    <polygon class="fil2" points="132,327 131,327 131,327 "/>
    <polygon class="fil2" points="185,302 185,302 186,302 "/>
    <polygon class="fil2" points="210,287 210,288 210,287 "/>
    <path class="fil2" d="M212 283c0,0 0,0 0,0l0 0c0,0 0,0 0,0z"/>
    <path class="fil2" d="M222 271c0,1 0,0 0,0l0 0c0,0 0,0 0,0z"/>
    <path class="fil2" d="M218 274c0,0 0,0 0,0l0 0c0,0 0,0 0,0z"/>
    <path class="fil2" d="M108 329l0 0c0,0 0,0 0,0z"/>
    <polygon class="fil2" points="44,115 44,115 "/>
    <polygon class="fil2" points="118,155 118,155 "/>
    <polygon class="fil2" points="130,300 130,300 "/>
   </g>
  </g>
 </g>
</svg>
