<?xml version="1.0" encoding="UTF-8"?>
<!DOCTYPE svg PUBLIC "-//W3C//DTD SVG 1.1//EN" "http://www.w3.org/Graphics/SVG/1.1/DTD/svg11.dtd">
<!-- Creator: CorelDRAW X8 -->
<svg xmlns="http://www.w3.org/2000/svg" xml:space="preserve" width="16.4702mm" height="12.4233mm" version="1.1" style="shape-rendering:geometricPrecision; text-rendering:geometricPrecision; image-rendering:optimizeQuality; fill-rule:evenodd; clip-rule:evenodd"
viewBox="0 0 45 34"
 xmlns:xlink="http://www.w3.org/1999/xlink">
 <defs>
  <style type="text/css">
   <![CDATA[
    .fil0 {fill:#EA5B24}
   ]]>
  </style>
 </defs>
 <g id="图层_x0020_1">
  <metadata id="CorelCorpID_0Corel-Layer"/>
  <g id="_2309513252912">
   <polygon class="fil0" points="13,29 19,29 19,0 13,0 "/>
   <polygon class="fil0" points="4,29 10,29 10,13 4,13 "/>
   <path class="fil0" d="M0 32l28 0c1,0 1,0 1,-1 -2,-1 -20,0 -26,0 -4,0 -2,0 -3,1z"/>
   <path class="fil0" d="M22 14c1,0 1,-1 3,-2 3,-2 3,0 3,-4l-6 0 0 6z"/>
   <path class="fil0" d="M39 27c1,-5 4,-8 -1,-13 -4,-4 -10,-3 -13,1 -3,3 -3,9 0,12 4,5 8,2 13,1l5 6 2 -2 -6 -5zm-10 -13c10,-3 14,11 5,14 -9,3 -14,-11 -5,-14z"/>
  </g>
 </g>
</svg>
