<?xml version="1.0" standalone="no"?><!DOCTYPE svg PUBLIC "-//W3C//DTD SVG 1.1//EN" "http://www.w3.org/Graphics/SVG/1.1/DTD/svg11.dtd"><svg t="1627517408034" class="icon" viewBox="0 0 1024 1024" version="1.1" xmlns="http://www.w3.org/2000/svg" p-id="6155" xmlns:xlink="http://www.w3.org/1999/xlink" width="200" height="200"><defs><style type="text/css">@font-face { font-family: feedback-iconfont; src: url("//at.alicdn.com/t/font_1031158_1uhr8ri0pk5.eot?#iefix") format("embedded-opentype"), url("//at.alicdn.com/t/font_1031158_1uhr8ri0pk5.woff2") format("woff2"), url("//at.alicdn.com/t/font_1031158_1uhr8ri0pk5.woff") format("woff"), url("//at.alicdn.com/t/font_1031158_1uhr8ri0pk5.ttf") format("truetype"), url("//at.alicdn.com/t/font_1031158_1uhr8ri0pk5.svg#iconfont") format("svg"); }
</style></defs><path d="M465.066667 600.234667V256.341333c0-17.578667-18.944-31.744-42.325334-31.744-23.381333 0-42.325333 14.336-42.325333 31.744v343.893334c-36.693333 16.213333-62.293333 52.736-62.293333 95.232 0 57.514667 46.762667 103.936 104.618666 103.936 57.685333 0 104.448-46.592 104.448-103.936 0.170667-42.496-25.429333-79.018667-62.122666-95.232z" p-id="6156"></path><path d="M852.821333 414.890667c-13.312-24.576-29.525333-50.346667-48.128-76.8-23.210667-32.597333-47.957333-64.170667-74.410666-94.208l-7.338667-8.192-25.941333-28.330667-25.941334 28.330667c-29.184 32.597333-56.32 66.730667-81.749333 102.4-0.512 0.682667-1.024 1.536-1.536 2.218666v-108.885333c0-39.253333-19.968-76.458667-53.930667-102.058667C503.637333 106.325333 464.213333 93.866667 422.912 93.866667c-41.301333 0-80.725333 12.458667-111.104 35.498666-33.962667 25.6-53.930667 62.805333-53.930667 102.058667v313.344c-40.789333 42.325333-63.488 98.474667-63.488 157.696-0.170667 60.586667 24.064 118.613333 67.072 161.109333 42.837333 42.837333 101.034667 66.901333 161.621334 66.730667 60.586667 0.170667 118.784-23.893333 161.621333-66.730667 33.109333-32.768 55.125333-74.922667 63.317333-120.149333 15.701333 4.608 32.256 7.168 49.322667 7.168 107.690667 0 192.853333-98.474667 192.853333-217.429333-0.170667-34.816-13.482667-74.069333-37.376-118.272zM547.669333 826.368c-33.109333 33.109333-77.994667 51.712-124.757333 51.541333-46.762667 0.170667-91.648-18.432-124.757333-51.541333-33.28-33.28-51.712-77.141333-51.712-124.074667 0-48.298667 19.968-94.549333 55.296-127.658666l8.192-7.68V231.424c0-22.186667 11.776-44.202667 33.109333-60.416 21.162667-15.872 49.493333-24.917333 79.701333-24.917333 30.208 0 58.538667 9.045333 79.701334 24.917333 21.333333 16.042667 33.109333 38.058667 33.109333 60.416v335.530667l8.192 7.68c35.328 33.28 55.296 79.189333 55.296 127.658666 0.341333 46.592-18.261333 91.306667-51.370667 124.074667z m149.504-146.090667c-17.066667 0-33.28-4.266667-48.128-11.946666-6.997333-46.250667-28.16-89.6-60.928-123.733334v-65.194666c12.288-29.184 32.426667-63.488 58.88-100.864 16.042667-22.528 33.109333-44.714667 50.346667-65.536 17.578667 21.162667 34.304 43.008 50.346667 65.536 15.872 22.186667 30.549333 45.397333 43.690666 69.461333 18.773333 34.986667 28.842667 64.341333 28.842667 84.821333-0.341333 82.432-56.490667 147.456-123.050667 147.456z" p-id="6157"></path></svg>